# 3ds Max Wavefront OBJ Exporter v0.99 - (c)2007 guruware
# File Created: 12.01.2022 23:59:32

mtllib rock1.mtl

#
# object tas1
#

v  -2.5280 14.7104 0.4921
v  -2.9433 14.6270 -0.8956
v  -6.9947 -1.9742 -8.4207
v  -6.9944 -1.9800 -8.4174
v  -6.7861 -3.5303 -7.1148
v  -5.1570 -4.4720 -1.1875
v  -3.6689 8.7093 7.8978
v  -2.3147 14.5629 1.2775
v  4.1053 8.5250 -16.0270
v  4.3735 8.5224 -16.0767
v  4.2574 5.7879 -16.8961
v  3.0323 5.8057 -16.6668
v  11.0718 -7.2307 5.9779
v  12.1351 -6.6198 5.9897
v  11.6844 5.1441 8.8691
v  11.6709 5.1784 8.8692
v  10.9364 6.3485 8.7325
v  2.9095 6.9280 9.3379
v  9.4352 -7.0682 6.1618
v  6.3147 6.1755 -16.7313
v  22.9950 3.4167 -4.7971
v  15.7258 -6.5378 -3.5948
v  2.2011 -3.8109 -13.8991
v  3.4581 -1.5179 -15.8666
v  5.1830 2.2784 -18.7775
v  5.9383 5.7541 -16.8661
v  -0.3454 1.1921 -15.4967
v  -6.2948 -3.4255 -8.3740
v  1.8888 -2.1415 -12.2267
v  11.7084 5.1739 8.8620
v  4.2549 5.6921 -16.9058
v  22.6340 7.4417 -0.4036
v  22.8118 7.2713 -1.0265
v  22.7040 7.5385 -0.8732
v  4.4206 9.2871 -15.6719
v  4.7737 8.5124 -16.0702
v  4.3213 9.5522 -15.5112
v  -2.2153 14.7181 1.0804
v  -2.4754 14.7508 0.4941
v  -6.9890 -1.9779 -8.4319
v  -2.7280 14.8205 -1.0514
v  12.3065 -7.2458 4.9967
v  11.7790 14.3071 -2.1274
v  11.2247 14.2678 -0.5697
v  13.2823 7.9560 7.7279
v  14.6229 7.4568 7.3993
v  14.8480 7.3958 7.3137
v  13.3244 6.6221 8.1783
v  13.2947 7.1562 8.0628
v  12.5091 7.3351 8.1731
v  13.2176 7.8862 7.7875
v  3.8517 14.9354 -10.4881
v  2.9686 5.6907 -16.6672
# 53 vertices

vn -0.9543 0.1063 0.2792
vn -0.1721 0.2894 -0.9416
vn 0.0922 -0.1793 0.9795
vn 0.6070 -0.3077 -0.7327
vn -0.4484 -0.5312 -0.7189
vn 0.6907 0.0745 0.7193
vn 0.0198 0.0997 -0.9948
vn 0.9432 0.2681 0.1959
vn 0.0260 0.4665 -0.8842
vn -0.1558 0.4694 -0.8691
vn -0.5838 0.7542 0.3006
vn -0.8899 -0.2631 -0.3726
vn -0.6066 0.7835 0.1345
vn 0.4164 -0.7350 0.5352
vn -0.1120 -0.9857 -0.1258
vn -0.4682 -0.3974 0.7892
vn 0.6384 0.7295 0.2456
vn 0.6760 0.2307 0.6999
vn 0.6649 0.3644 0.6520
vn 0.7585 0.3665 0.5389
vn 0.1048 0.7550 0.6473
vn 0.8986 -0.2842 0.3342
vn 0.0382 0.9985 0.0388
vn 0.8143 0.2150 0.5391
vn 0.6203 0.5634 -0.5458
vn 0.0228 0.2861 -0.9579
vn -0.1815 0.1038 -0.9779
vn -0.1809 -0.1207 -0.9761
vn -0.7481 0.4167 -0.5165
vn -0.8340 -0.4146 -0.3642
# 30 vertex normals

vt 0.6854 0.9899 0.1489
vt 0.6360 0.9861 0.1351
vt 0.3684 0.2377 0.0000
vt 0.3685 0.2374 0.0000
vt 0.4148 0.1675 0.0070
vt 0.6256 0.1251 0.0613
vt 0.9488 0.7193 0.1109
vt 0.7133 0.9832 0.1561
vt 0.6299 0.7110 0.9022
vt 0.6209 0.7109 0.9039
vt 0.6248 0.5876 0.9331
vt 0.6656 0.5884 0.9249
vt 0.6024 0.0007 0.1195
vt 0.6379 0.0282 0.1191
vt 0.6228 0.5586 0.0167
vt 0.6224 0.5601 0.0167
vt 0.5979 0.6129 0.0215
vt 0.3303 0.6390 0.0000
vt 0.5479 0.0080 0.1130
vt 0.5562 0.6051 0.9272
vt 0.0000 0.4807 0.5027
vt 0.2424 0.0319 0.4600
vt 0.6934 0.1549 0.8265
vt 0.6515 0.2582 0.8965
vt 0.5939 0.4294 1.0000
vt 0.5688 0.5861 0.9320
vt 0.1167 0.3804 0.2217
vt 0.1035 0.2582 0.3485
vt 0.1735 0.1549 0.3066
vt 0.3700 0.1722 0.0233
vt 0.2330 0.2301 0.2962
vt 0.6237 0.5599 0.0169
vt 0.6249 0.5833 0.9334
vt 0.3465 0.6622 0.9880
vt 0.3686 0.6545 0.9939
vt 0.3632 0.6665 0.9903
vt 0.6194 0.7454 0.8895
vt 0.6076 0.7104 0.9037
vt 0.6227 0.7573 0.8838
vt 0.1489 0.3146 0.9899
vt 0.1561 0.2867 0.9832
vt 0.1594 0.2937 0.9902
vt 0.1507 0.3146 0.9917
vt 0.3680 0.2375 0.0002
vt 0.1423 0.3695 0.9948
vt 0.1351 0.3640 0.9861
vt 0.3621 0.1191 0.0282
vt 0.3976 0.1195 0.0007
vt 0.3564 0.1544 0.0000
vt 0.9387 0.3744 0.1251
vt 0.9930 0.5852 0.1675
vt 0.9767 0.6300 0.1722
vt 0.6934 0.8265 0.1549
vt 0.2424 0.4600 0.0319
vt 0.4521 0.1130 0.0080
vt 0.0613 0.1251 0.3744
vt 0.1109 0.7193 0.0512
vt 0.9880 0.3465 0.6622
vt 0.9903 0.3632 0.6665
vt 0.6260 0.4078 0.9717
vt 0.6075 0.3524 0.9699
vt 0.6761 0.0573 0.6853
vt 0.7208 0.0690 0.6628
vt 0.7283 0.0720 0.6601
vt 0.6775 0.6252 0.0412
vt 0.6765 0.6493 0.0454
vt 0.6503 0.6574 0.0414
vt 0.6740 0.6822 0.0551
vt 0.7208 0.6628 0.0690
vt 0.6761 0.6853 0.0573
vt 0.1109 0.0512 0.7193
vt 0.3303 0.0000 0.6390
vt 0.5979 0.0215 0.6129
vt 0.6503 0.0414 0.6574
vt 0.6740 0.0551 0.6822
vt 0.0169 0.5599 0.6237
vt 0.0167 0.5586 0.6228
vt 0.1191 0.0282 0.6379
vt 0.1544 0.0000 0.6436
vt 0.4600 0.0319 0.7576
vt 0.5027 0.4807 1.0000
vt 0.0720 0.6601 0.7283
vt 0.0412 0.6252 0.6775
vt 0.3617 0.7052 1.0000
vt 0.7283 0.6601 0.0720
vt 1.0000 0.5027 0.4807
vt 0.4438 0.9272 0.6051
vt 0.3924 0.9037 0.7104
vt 0.3806 0.8895 0.7454
vt 0.3773 0.8838 0.7573
vt 0.9939 0.3686 0.6545
vt 0.6678 0.5832 0.9249
vt 0.7783 0.3804 0.8833
vt 0.2948 1.0000 0.3617
vt 0.1162 0.7573 0.3773
vt 0.0978 0.7110 0.3701
vt 0.0751 0.5884 0.3344
vt 0.0751 0.5832 0.3322
vt 0.6305 0.9948 0.1423
vt 0.9930 0.1675 0.5852
vt 1.0000 0.2374 0.6315
vt 0.9998 0.2375 0.6320
vt 0.7038 0.2301 0.7670
vt 0.9767 0.1722 0.6300
# 104 texture coords

o tas1
g tas1
usemtl Material__26
s off
f 1/1/1 2/2/1 3/3/1 4/4/1 5/5/1 6/6/1 7/7/1 8/8/1 
f 9/9/2 10/10/2 11/11/2 12/12/2 
f 13/13/3 14/14/3 15/15/3 16/16/3 17/17/3 18/18/3 19/19/3 
f 20/20/4 21/21/4 22/22/4 23/23/4 24/24/4 25/25/4 26/26/4 
f 27/27/5 24/28/5 23/29/5 28/30/5 29/31/5 
f 15/15/6 30/32/6 16/16/6 
f 11/11/7 26/26/7 25/25/7 31/33/7 
f 32/34/8 33/35/8 34/36/8 
f 10/10/9 35/37/9 36/38/9 
f 9/9/10 37/39/10 35/37/10 10/10/10 
f 1/40/11 8/41/11 38/42/11 39/43/11 
f 4/4/12 3/3/12 40/44/12 
f 41/45/13 2/46/13 1/40/13 39/43/13 
f 14/47/14 13/48/14 42/49/14 
f 6/50/15 5/51/15 28/52/15 23/53/15 22/54/15 42/49/15 13/48/15 19/55/15 
f 6/56/16 19/19/16 18/18/16 7/57/16 
f 32/58/17 34/59/17 43/60/17 44/61/17 45/62/17 46/63/17 47/64/17 
f 17/17/18 16/16/18 30/32/18 48/65/18 49/66/18 50/67/18 
f 49/66/19 51/68/19 50/67/19 
f 51/68/20 49/66/20 46/69/20 45/70/20 
f 8/41/21 7/71/21 18/72/21 17/73/21 50/74/21 51/75/21 45/62/21 44/61/21 38/42/21 
f 30/76/22 15/77/22 14/78/22 42/79/22 22/80/22 21/81/22 33/35/22 32/34/22 47/82/22 48/83/22 
f 41/45/23 39/43/23 38/42/23 44/61/23 43/60/23 52/84/23 
f 48/65/24 47/85/24 46/69/24 49/66/24 
f 21/86/25 20/87/25 36/88/25 35/89/25 37/90/25 52/84/25 43/60/25 34/59/25 33/91/25 
f 36/38/26 20/20/26 26/26/26 11/11/26 10/10/26 
f 12/12/27 11/11/27 31/33/27 53/92/27 
f 53/92/28 31/33/28 25/25/28 24/24/28 27/93/28 
f 52/94/29 37/95/29 9/96/29 12/97/29 53/98/29 27/27/29 29/31/29 40/44/29 3/3/29 2/2/29 41/99/29 
f 5/100/30 4/101/30 40/102/30 29/103/30 28/104/30 
# 24 polygons - 6 triangles

