# 3ds Max Wavefront OBJ Exporter v0.99 - (c)2007 guruware
# File Created: 28.12.2021 21:22:31

mtllib tas1.mtl

#
# object tas1
#

v  -2.5280 14.7104 0.4921
v  -2.9433 14.6270 -0.8956
v  -6.9947 -1.9742 -8.4207
v  -6.9944 -1.9800 -8.4174
v  -6.7861 -3.5303 -7.1148
v  -5.1570 -4.4720 -1.1875
v  -3.6689 8.7093 7.8978
v  -2.3147 14.5629 1.2775
v  4.1053 8.5250 -16.0270
v  4.3735 8.5224 -16.0767
v  4.2574 5.7879 -16.8961
v  3.0323 5.8057 -16.6668
v  11.0718 -7.2307 5.9779
v  12.1351 -6.6198 5.9897
v  11.6844 5.1441 8.8691
v  11.6709 5.1784 8.8692
v  10.9364 6.3485 8.7325
v  2.9095 6.9280 9.3379
v  9.4352 -7.0682 6.1618
v  6.3147 6.1755 -16.7313
v  22.9950 3.4167 -4.7971
v  15.7258 -6.5378 -3.5948
v  2.2011 -3.8109 -13.8991
v  3.4581 -1.5179 -15.8666
v  5.1830 2.2784 -18.7775
v  5.9383 5.7541 -16.8661
v  -0.3454 1.1921 -15.4967
v  -6.2948 -3.4255 -8.3740
v  1.8888 -2.1415 -12.2267
v  11.7084 5.1739 8.8620
v  4.2549 5.6921 -16.9058
v  22.6340 7.4417 -0.4036
v  22.8118 7.2713 -1.0265
v  22.7040 7.5385 -0.8732
v  4.4206 9.2871 -15.6719
v  4.7737 8.5124 -16.0702
v  4.3213 9.5522 -15.5112
v  -2.2153 14.7181 1.0804
v  -2.4754 14.7508 0.4941
v  -6.9890 -1.9779 -8.4319
v  -2.7280 14.8205 -1.0514
v  12.3065 -7.2458 4.9967
v  11.7790 14.3071 -2.1274
v  11.2247 14.2678 -0.5697
v  13.2823 7.9560 7.7279
v  14.6229 7.4568 7.3993
v  14.8480 7.3958 7.3137
v  13.3244 6.6221 8.1783
v  13.2947 7.1562 8.0628
v  12.5091 7.3351 8.1731
v  13.2176 7.8862 7.7875
v  3.8517 14.9354 -10.4881
v  2.9686 5.6907 -16.6672
# 53 vertices

vn -0.9543 0.1063 0.2792
vn -0.1721 0.2894 -0.9416
vn 0.0922 -0.1793 0.9795
vn 0.6070 -0.3077 -0.7327
vn -0.4484 -0.5312 -0.7189
vn 0.6907 0.0745 0.7193
vn 0.0198 0.0997 -0.9948
vn 0.9432 0.2681 0.1959
vn 0.0260 0.4665 -0.8842
vn -0.1558 0.4694 -0.8691
vn -0.5838 0.7542 0.3006
vn -0.8899 -0.2631 -0.3726
vn -0.6066 0.7835 0.1345
vn 0.4164 -0.7350 0.5352
vn -0.1120 -0.9857 -0.1258
vn -0.4682 -0.3974 0.7892
vn 0.6384 0.7295 0.2456
vn 0.6760 0.2307 0.6999
vn 0.6649 0.3644 0.6520
vn 0.7585 0.3665 0.5389
vn 0.1048 0.7550 0.6473
vn 0.8986 -0.2842 0.3342
vn 0.0382 0.9985 0.0388
vn 0.8143 0.2150 0.5391
vn 0.6203 0.5634 -0.5458
vn 0.0228 0.2861 -0.9579
vn -0.1815 0.1038 -0.9779
vn -0.1809 -0.1207 -0.9761
vn -0.7481 0.4167 -0.5165
vn -0.8340 -0.4146 -0.3642
# 30 vertex normals

o tas1
g tas1
usemtl Material__25
s off
f 1//1 2//1 3//1 4//1 5//1 6//1 7//1 8//1 
f 9//2 10//2 11//2 12//2 
f 13//3 14//3 15//3 16//3 17//3 18//3 19//3 
f 20//4 21//4 22//4 23//4 24//4 25//4 26//4 
f 27//5 24//5 23//5 28//5 29//5 
f 15//6 30//6 16//6 
f 11//7 26//7 25//7 31//7 
f 32//8 33//8 34//8 
f 10//9 35//9 36//9 
f 9//10 37//10 35//10 10//10 
f 1//11 8//11 38//11 39//11 
f 4//12 3//12 40//12 
f 41//13 2//13 1//13 39//13 
f 14//14 13//14 42//14 
f 6//15 5//15 28//15 23//15 22//15 42//15 13//15 19//15 
f 6//16 19//16 18//16 7//16 
f 32//17 34//17 43//17 44//17 45//17 46//17 47//17 
f 17//18 16//18 30//18 48//18 49//18 50//18 
f 49//19 51//19 50//19 
f 51//20 49//20 46//20 45//20 
f 8//21 7//21 18//21 17//21 50//21 51//21 45//21 44//21 38//21 
f 30//22 15//22 14//22 42//22 22//22 21//22 33//22 32//22 47//22 48//22 
f 41//23 39//23 38//23 44//23 43//23 52//23 
f 48//24 47//24 46//24 49//24 
f 21//25 20//25 36//25 35//25 37//25 52//25 43//25 34//25 33//25 
f 36//26 20//26 26//26 11//26 10//26 
f 12//27 11//27 31//27 53//27 
f 53//28 31//28 25//28 24//28 27//28 
f 52//29 37//29 9//29 12//29 53//29 27//29 29//29 40//29 3//29 2//29 41//29 
f 5//30 4//30 40//30 29//30 28//30 
# 24 polygons - 6 triangles

